<svg width="48" height="48" viewBox="0 0 48 48" fill="none" xmlns="http://www.w3.org/2000/svg">
<path d="M35.3228 41.3985L31.7372 46.2143C31.3706 46.6837 30.8418 46.9943 30.2578 47.0831C29.6738 47.172 29.0783 47.0324 28.592 46.6926L20.729 40.6012C20.5636 40.9236 20.3744 41.2327 20.1628 41.5261C18.9708 43.0734 17.2233 44.0794 15.3021 44.3244C13.3809 44.5694 11.4422 44.0335 9.90943 42.8337C8.34876 41.6681 7.30706 39.923 7.01233 37.9804C6.7176 36.0378 7.19384 34.056 8.33682 32.4686C8.54648 32.1749 8.77779 31.8977 9.02877 31.6394L0.882653 25.4522C0.419677 25.0805 0.113358 24.5442 0.0257578 23.9521C-0.0618426 23.3599 0.0758254 22.7561 0.410871 22.263L3.83916 17.4791C4.1973 17.8932 4.59796 18.2674 5.03434 18.5954C6.56708 19.7952 8.50583 20.3311 10.427 20.0861C12.3482 19.8411 14.0957 18.8351 15.2877 17.2878C16.4307 15.7004 16.907 13.7185 16.6122 11.7759C16.3175 9.83336 15.2758 8.08829 13.7151 6.92269C13.2839 6.59773 12.82 6.3198 12.3312 6.09349L16.1999 0.89501C16.5664 0.425552 17.0953 0.114945 17.6793 0.0261184C18.2633 -0.0627085 18.8588 0.076887 19.3451 0.416623L27.3339 6.31674C28.5497 4.83524 30.2856 3.89068 32.1752 3.68241C34.0648 3.47414 35.9602 4.01847 37.4615 5.2005C38.9938 6.33843 40.0306 8.03514 40.3533 9.93301C40.676 11.8309 40.2594 13.7817 39.1914 15.3742L47.1173 21.4976C47.5803 21.8693 47.8866 22.4056 47.9742 22.9977C48.0618 23.5899 47.9242 24.1937 47.5891 24.6868L43.9721 29.7258C43.6816 29.4129 43.366 29.1249 43.0286 28.8647C42.2727 28.2868 41.412 27.8654 40.4955 27.6247C39.5791 27.3841 38.6249 27.3288 37.6874 27.4621C36.7498 27.5953 35.8474 27.9145 35.0315 28.4015C34.2157 28.8884 33.5024 29.5335 32.9324 30.2999C31.7813 31.8478 31.2837 33.796 31.5491 35.7159C31.8145 37.6358 32.8212 39.3701 34.3478 40.5374C34.6483 40.8517 34.9745 41.1398 35.3228 41.3985Z" fill="#0B63D5"/>
<path d="M24.8179 11.4196C24.8179 13.4666 25.643 15.4297 27.1117 16.8771C28.5804 18.3245 30.5724 19.1376 32.6495 19.1376C34.7265 19.1376 36.7185 18.3245 38.1872 16.8771C39.6559 15.4297 40.4811 13.4666 40.4811 11.4196C40.4811 9.37271 39.6559 7.40961 38.1872 5.96221C36.7185 4.5148 34.7265 3.70166 32.6495 3.70166C30.5724 3.70166 28.5804 4.5148 27.1117 5.96221C25.643 7.40961 24.8179 9.37271 24.8179 11.4196Z" fill="#FFCE54"/>
</svg>
