<svg width="32" height="32" viewBox="0 0 32 32" fill="none" xmlns="http://www.w3.org/2000/svg">
<path d="M23.5485 27.599L21.1582 30.8095C20.9138 31.1225 20.5612 31.3295 20.1718 31.3888C19.7825 31.448 19.3855 31.3549 19.0613 31.1284L13.8193 27.0674C13.7091 27.2824 13.5829 27.4885 13.4419 27.684C12.6472 28.7156 11.4822 29.3863 10.2014 29.5496C8.92061 29.713 7.62811 29.3557 6.60628 28.5558C5.56584 27.7787 4.87137 26.6153 4.67489 25.3203C4.4784 24.0252 4.79589 22.704 5.55788 21.6457C5.69765 21.4499 5.85186 21.2651 6.01918 21.0929L0.588436 16.9682C0.279784 16.7203 0.0755721 16.3628 0.0171718 15.968C-0.0412284 15.5733 0.0505503 15.1707 0.273914 14.842L2.55944 11.6527C2.7982 11.9288 3.06531 12.1783 3.35623 12.3969C4.37805 13.1968 5.67055 13.5541 6.95136 13.3908C8.23216 13.2274 9.39716 12.5567 10.1918 11.5252C10.9538 10.4669 11.2713 9.14568 11.0748 7.85063C10.8783 6.55557 10.1839 5.39219 9.14343 4.61513C8.85591 4.39849 8.54667 4.2132 8.22083 4.06233L10.7999 0.596674C11.0443 0.283701 11.3969 0.0766301 11.7862 0.0174123C12.1755 -0.0418056 12.5725 0.051258 12.8967 0.277749L18.2226 4.21116C19.0331 3.22349 20.1904 2.59378 21.4501 2.45494C22.7098 2.3161 23.9735 2.67898 24.9744 3.467C25.9959 4.22562 26.687 5.35676 26.9022 6.62201C27.1173 7.88726 26.8396 9.18778 26.1276 10.2495L31.4116 14.3317C31.7202 14.5795 31.9244 14.937 31.9828 15.3318C32.0412 15.7266 31.9494 16.1291 31.7261 16.4579L29.3148 19.8172C29.1211 19.6086 28.9107 19.4166 28.6857 19.2432C28.1818 18.8578 27.608 18.5769 26.997 18.4165C26.3861 18.256 25.7499 18.2192 25.1249 18.308C24.4999 18.3969 23.8983 18.6097 23.3544 18.9343C22.8105 19.2589 22.3349 19.689 21.9549 20.1999C21.1875 21.2319 20.8558 22.5306 21.0327 23.8106C21.2097 25.0905 21.8808 26.2468 22.8985 27.0249C23.0989 27.2345 23.3163 27.4265 23.5485 27.599Z" fill="#0B63D5"/>
<path d="M16.5454 7.6131C16.5454 8.97772 17.0955 10.2865 18.0746 11.2514C19.0538 12.2163 20.3818 12.7584 21.7665 12.7584C23.1512 12.7584 24.4792 12.2163 25.4583 11.2514C26.4375 10.2865 26.9875 8.97772 26.9875 7.6131C26.9875 6.24847 26.4375 4.93974 25.4583 3.9748C24.4792 3.00987 23.1512 2.46777 21.7665 2.46777C20.3818 2.46777 19.0538 3.00987 18.0746 3.9748C17.0955 4.93974 16.5454 6.24847 16.5454 7.6131Z" fill="#FFCE54"/>
</svg>
