<svg width="16" height="16" viewBox="0 0 16 16" fill="none" xmlns="http://www.w3.org/2000/svg">
<path d="M11.7743 13.7995L10.5791 15.4048C10.4569 15.5612 10.2806 15.6648 10.0859 15.6944C9.89126 15.724 9.69277 15.6775 9.53067 15.5642L6.90966 13.5337C6.85454 13.6412 6.79146 13.7442 6.72094 13.842C6.32361 14.3578 5.74111 14.6931 5.10071 14.7748C4.46031 14.8565 3.81406 14.6778 3.30314 14.2779C2.78292 13.8894 2.43569 13.3077 2.33744 12.6601C2.2392 12.0126 2.39795 11.352 2.77894 10.8229C2.84883 10.725 2.92593 10.6326 3.00959 10.5465L0.294218 8.48408C0.139892 8.36017 0.0377861 8.18142 0.00858592 7.98402C-0.0206142 7.78663 0.0252751 7.58536 0.136957 7.421L1.27972 5.82637C1.3991 5.9644 1.53265 6.08913 1.67811 6.19845C2.18903 6.59839 2.83528 6.77705 3.47568 6.69538C4.11608 6.61371 4.69858 6.27836 5.09592 5.76259C5.47691 5.23347 5.63566 4.57284 5.53741 3.92531C5.43917 3.27779 5.09193 2.6961 4.57171 2.30756C4.42796 2.19924 4.27333 2.1066 4.11041 2.03116L5.39995 0.298337C5.52215 0.141851 5.69844 0.0383151 5.89311 0.00870613C6.08777 -0.0209028 6.28626 0.025629 6.44836 0.138874L9.11131 2.10558C9.51657 1.61175 10.0952 1.29689 10.7251 1.22747C11.3549 1.15805 11.9867 1.33949 12.4872 1.7335C12.9979 2.11281 13.3435 2.67838 13.4511 3.311C13.5587 3.94363 13.4198 4.59389 13.0638 5.12474L15.7058 7.16586C15.8601 7.28976 15.9622 7.46852 15.9914 7.66591C16.0206 7.86331 15.9747 8.06457 15.863 8.22894L14.6574 9.90861C14.5605 9.80429 14.4553 9.70828 14.3429 9.62158C14.0909 9.42892 13.804 9.28847 13.4985 9.20825C13.193 9.12802 12.875 9.1096 12.5625 9.15402C12.2499 9.19844 11.9491 9.30485 11.6772 9.46715C11.4052 9.62946 11.1675 9.84449 10.9775 10.1C10.5938 10.6159 10.4279 11.2653 10.5164 11.9053C10.6048 12.5453 10.9404 13.1234 11.4493 13.5125C11.5494 13.6172 11.6582 13.7133 11.7743 13.7995Z" fill="#0B63D5"/>
<path d="M8.27246 3.80655C8.27246 4.48886 8.5475 5.14323 9.03707 5.6257C9.52664 6.10816 10.1906 6.37921 10.883 6.37921C11.5753 6.37921 12.2393 6.10816 12.7289 5.6257C13.2185 5.14323 13.4935 4.48886 13.4935 3.80655C13.4935 3.12424 13.2185 2.46987 12.7289 1.9874C12.2393 1.50493 11.5753 1.23389 10.883 1.23389C10.1906 1.23389 9.52664 1.50493 9.03707 1.9874C8.5475 2.46987 8.27246 3.12424 8.27246 3.80655Z" fill="#FFCE54"/>
</svg>
