<svg width="128" height="126" viewBox="0 0 128 126" fill="none" xmlns="http://www.w3.org/2000/svg">
<path d="M94.1941 110.396L84.6326 123.238C83.6551 124.49 82.2447 125.318 80.6874 125.555C79.1301 125.792 77.5421 125.42 76.2454 124.514L55.2773 108.27C54.8363 109.129 54.3316 109.954 53.7676 110.736C50.5889 114.862 45.9289 117.545 40.8057 118.198C35.6824 118.852 30.5124 117.423 26.4251 114.223C22.2634 111.115 19.4855 106.461 18.6995 101.281C17.9136 96.1008 19.1836 90.8159 22.2315 86.5829C22.7906 85.7996 23.4074 85.0604 24.0767 84.3717L2.35374 67.8726C1.11914 66.8814 0.302289 65.4513 0.0686874 63.8722C-0.164914 62.293 0.202201 60.6829 1.09566 59.368L10.2378 46.611C11.1928 47.7152 12.2612 48.713 13.4249 49.5876C17.5122 52.7871 22.6822 54.2164 27.8054 53.563C32.9286 52.9097 37.5886 50.2269 40.7673 46.1007C43.8153 41.8677 45.0853 36.5827 44.2993 31.4025C43.5133 26.2223 40.7355 21.5688 36.5737 18.4605C35.4236 17.594 34.1867 16.8528 32.8833 16.2493L43.1996 2.38669C44.1772 1.13481 45.5875 0.306521 47.1448 0.069649C48.7022 -0.167223 50.2901 0.205032 51.5869 1.11099L72.8905 16.8446C76.1325 12.894 80.7615 10.3751 85.8004 9.81976C90.8394 9.26439 95.894 10.7159 99.8974 13.868C103.984 16.9025 106.748 21.427 107.609 26.488C108.469 31.549 107.358 36.7511 104.51 40.9979L125.646 57.3268C126.881 58.3181 127.698 59.7482 127.931 61.3273C128.165 62.9064 127.798 64.5166 126.904 65.8315L117.259 79.2689C116.484 78.4343 115.643 77.6663 114.743 76.9726C112.727 75.4314 110.432 74.3078 107.988 73.666C105.544 73.0242 103 72.8768 100.5 73.2322C97.9996 73.5875 95.5931 74.4388 93.4174 75.7372C91.2418 77.0356 89.3397 78.7559 87.8198 80.7997C84.75 84.9274 83.4231 90.1226 84.1309 95.2423C84.8388 100.362 87.5233 104.987 91.594 108.1C92.3955 108.938 93.2652 109.706 94.1941 110.396Z" fill="#0B63D5"/>
<path d="M66.1807 30.4519C66.1807 35.9104 68.381 41.1453 72.2975 45.0051C76.2141 48.8648 81.5261 51.0332 87.0649 51.0332C92.6038 51.0332 97.9157 48.8648 101.832 45.0051C105.749 41.1453 107.949 35.9104 107.949 30.4519C107.949 24.9934 105.749 19.7585 101.832 15.8987C97.9157 12.039 92.6038 9.87061 87.0649 9.87061C81.5261 9.87061 76.2141 12.039 72.2975 15.8987C68.381 19.7585 66.1807 24.9934 66.1807 30.4519Z" fill="#FFCE54"/>
</svg>
